<svg xmlns="http://www.w3.org/2000/svg" width="512" height="124" viewBox="0 0 512 124" preserveAspectRatio="xMidYMid"><path d="M188.432 0c17.799-.077 36.052 5.03 49.886 16.537 7.089 5.738 12.815 12.937 17.678 20.602 8.75-14.144 21.531-26.162 37.292-31.955 19.206-7.21 40.915-6.712 60.088.355 16.747 6.114 31.39 16.769 44.67 28.487 10.389 9.171 20.003 19.206 30.702 28.034 5.638 4.574 11.696 8.86 18.63 11.23 9.215 3.146 20.114.178 26.704-6.922 6.103-6.645 5.726-18.131-.997-24.2-4.275-3.689-11.585-2.947-14.61 1.97-2.646 3.9-1.162 8.762.91 12.539-5.506-4.02-11.021-9.625-11-16.935-1.14-8.451 5.129-15.906 12.638-18.863 14.654-5.86 33.029-.808 42.278 12.095 8.894 12.04 9.602 27.867 8.052 42.21-1.872 13.624-9.492 26.34-20.79 34.226-15.86 11.32-35.964 14.83-55.092 14.587-18.386-.499-36.584-4.652-53.619-11.52-28.487-11.452-55.147-27.28-84.565-36.428-9.758-3.788-20.136-5.837-30.57-6.469-8.307-.055-16.182-.443-24.024.089-9.57.92-19.084 2.88-28.044 6.39-29.916 9.305-56.975 25.531-86.005 37.006-24.512 9.536-51.67 13.967-77.687 8.672-14.554-2.946-29.042-9.381-38.866-20.845C3.684 91.145-.347 78.098.05 65.316c-.465-12.062 2.182-24.877 10.157-34.27 7.42-8.904 19.372-13.423 30.847-12.426 7.387.343 14.875 3.566 19.438 9.514 3.589 4.707 3.81 11.154 2.237 16.658-1.916 4.951-5.87 8.817-10.167 11.785 2.193-3.7 3.522-8.584.93-12.45-3.19-5.15-11.043-5.67-15.196-1.44-5.117 5.262-6.192 13.857-2.758 20.303 3.721 6.757 11.42 10.611 18.873 11.397 11.276.975 21.056-6.014 29.33-12.792 17.123-14.743 32.54-31.611 51.536-44.083 15.662-10.5 34.114-17.6 53.154-17.511z" fill="#423426"/><path d="M60.444 123.05c-23.196-2.62-42.622-12.81-51.842-27.194C2.762 86.745.272 77.368.286 64.532c.017-16.562 3.537-26.643 12.38-35.45 3.625-3.61 4.73-4.41 8.834-6.39 2.58-1.245 6.313-2.628 8.296-3.074 4.673-1.05 12.801-1.025 16.902.052 6.706 1.762 12.884 6.377 15.224 11.371 1.104 2.358 1.226 3.111 1.218 7.576-.008 4.59-.108 5.156-1.352 7.644-1.293 2.585-7.127 9.258-7.644 8.741-.138-.138.073-1.515.469-3.06.587-2.29.625-3.207.205-4.957-1.036-4.318-4.788-7.212-9.374-7.231-4.414-.019-7.689 2.198-10.02 6.782-5.706 11.219.987 23.614 14.71 27.242 3.384.894 9.539.892 13.015-.004 3.837-.99 10.207-4.172 14.422-7.206 5.077-3.654 9.258-7.271 21.634-18.717 26.766-24.755 39.52-34.039 55.994-40.762C167.174 2.202 176.663.325 189.12.379c26.62.115 47.223 10.191 62.233 30.434 1.454 1.963 2.998 4.166 3.43 4.897.432.731.923 1.33 1.092 1.33.168 0 1.64-1.877 3.269-4.17 10.038-14.125 22.112-23.423 36.743-28.293 22.132-7.368 45.595-5.325 68.107 5.93 14.31 7.156 25.285 15.456 45.735 34.589 14.617 13.675 17.657 16.346 23.506 20.655 9.926 7.312 17.933 9.94 26.023 8.545 9.006-1.554 16.157-6.926 18.31-13.755 2.295-7.272.066-15.38-5.263-19.144-3.538-2.499-9.528-2.041-12.562.96-2.816 2.786-3.53 6.533-2.057 10.795.45 1.301.68 2.366.512 2.366-.788 0-6.775-6.802-7.843-8.91-1.483-2.928-2.236-8.17-1.632-11.357 1.249-6.583 6.4-12.047 13.795-14.63 13.144-4.59 28.616-.686 38.17 9.634 4.795 5.18 8 11.791 9.85 20.325.88 4.055 1.02 6.002 1.009 13.952-.015 9.967-.356 12.625-2.46 19.155-2.596 8.062-5.955 13.47-12.336 19.867-6.866 6.883-14.964 11.706-25.6 15.247-9.98 3.323-20.08 4.774-33.242 4.774-12.06 0-21.971-1.21-33.577-4.099-15.034-3.741-23.76-7.198-53.634-21.25-27.367-12.872-35.01-16.113-50.93-21.596-15.374-5.296-21.213-6.473-35.605-7.18-20.95-1.03-31.548.356-50.029 6.545-16.291 5.456-24.19 8.778-52.056 21.894-17.04 8.02-24.021 11.142-32.225 14.409-14.102 5.616-28.552 9.273-42.687 10.803-5.173.56-21.586.528-26.722-.051z" fill="#fff"/><path d="M359.288 102.542c-2.62-1.226-5.515-2.594-11.211-5.297-9.099-4.318-12.624-5.966-17.465-8.161-7.766-3.522-14.65-6.407-20.944-8.777-.831-.313-.958-.37-.966-.423-.005-.034-.002-.062.006-.062.028 0 2.144.795 3.409 1.281 8.756 3.364 17.08 7.047 36.115 15.98a2854.981 2854.981 0 0 0 11.943 5.587l.113.052h-.31l-.31-.002-.38-.178z" fill="#fff"/><path d="M337.296 91.983a993.24 993.24 0 0 0-6.485-2.968l-.442-.2a.287.287 0 0 1-.066-.036l.002-.005a922.579 922.579 0 0 1 7.138 3.264c.001.001-.003.002-.011.002a.889.889 0 0 1-.137-.057zm-.532-.061a667.03 667.03 0 0 0-6.458-2.968c-.01-.01.007-.004.081.03a722.635 722.635 0 0 1 6.642 3.051c.006.004.006.005-.003.005-.005 0-.123-.053-.262-.118z" fill="#fff"/></svg>