<svg xmlns="http://www.w3.org/2000/svg" version="1" width="211pt" height="112pt" viewBox="0 0 211 112"><path d="M84.859 25.31c2.398.37 4.856-.132 6.876-1.404l.317-.201a.374.374 0 0 0 .176-.38.393.393 0 0 0-.296-.31l-14.796-3.783-11.939 3.053 19.662 3.026" fill="#333"/><path d="M154.495 87.735c-2.136 0-4.186-.505-5.626-1.386-.504-.308-1.678-1.135-1.678-2.145 0-1.634 3.19-3.532 7.304-3.532 2.136 0 4.187.505 5.626 1.386.505.309 1.677 1.135 1.677 2.146 0 .71-.61 1.493-1.676 2.145-1.44.881-3.491 1.387-5.627 1.386zm-19.161 3.424l8.26 2.307 10.9-3.046c.322 0 .639-.012.952-.03 5.163-.294 9.207-2.95 9.206-6.186 0-3.434-4.547-6.217-10.157-6.217s-10.158 2.784-10.158 6.217c0 1.29.644 2.49 1.745 3.482.276.25.59.483.922.705l-11.67 2.768m19.161 16.035c-4.113 0-7.304-1.899-7.304-3.532 0-1.01 1.174-1.837 1.678-2.146 1.44-.88 3.49-1.386 5.626-1.386 2.135 0 4.187.506 5.626 1.386 1.066.653 1.677 1.434 1.677 2.146 0 1.01-1.172 1.837-1.676 2.146-1.44.88-3.491 1.386-5.627 1.386zm-29.04-13.142c0-1.142.985-2.07 2.2-2.07 1.215 0 2.2.928 2.2 2.07 0 1.143-.985 2.069-2.2 2.069-1.215 0-2.2-.926-2.2-2.07zm29.04 15.825c5.61 0 10.158-2.782 10.157-6.215 0-3.237-4.043-5.893-9.206-6.187-.313-.017-.63-.03-.951-.03l-26.41-7.379-31.12.504c-3.242.317-6.235-.456-8.374 1.86l-.336.364a.5.5 0 0 0-.134.338.48.48 0 0 0 .05.213.548.548 0 0 0 .497.3l36.514 1.367c.157.356.4.67.702.921L88.646 94.54a1.559 1.559 0 0 1-.44-.07l-.036.05a.478.478 0 0 0-.05.213c0 .123.047.244.135.339l.336.364c2.139 2.316 5.132 1.542 8.374 1.859l31.12.504 3.656-1.022-2.623-.621a2.62 2.62 0 0 0 .78-.738l17.106 4.057a8.04 8.04 0 0 0-.922.703c-1.1.994-1.745 2.193-1.745 3.484 0 3.432 4.548 6.215 10.158 6.215M9.643 79.884l-.002-17.49a93.273 93.273 0 0 1-7.626-2.23 7781.821 7781.821 0 0 0 4.347 19.362 6969.068 6969.068 0 0 1-4.347 18.705c8.955 2.758 17.91 4 26.865 4.112a344.891 344.891 0 0 1-19.237-22.46" fill="#2d2d2d"/><path d="M14.12 81.645a347.5 347.5 0 0 0 18.199 20.784v-17.12c-6.067-.686-12.133-1.867-18.2-3.664" fill="#2d2d2d"/><path d="M201.314 71.722c-63.02-20.158-126.04 27.647-189.06 7.657V40.695c63.02 19.99 126.04-27.815 189.06-7.658v38.685" fill="#2d2d2d"/><path d="M203.692 73.887l.002-17.49a114.303 114.303 0 0 1 7.626 3.766 4308.721 4308.721 0 0 0-4.348 15.772c1.45 7.393 2.899 14.824 4.348 22.296a116.089 116.089 0 0 0-26.865-11.206c6.413-5.005 12.825-9.433 19.237-13.138" fill="#2d2d2d"/><path d="M199.216 72.77c-6.067 3.909-12.134 8.434-18.2 13.455v-17.12c6.066.687 12.133 1.868 18.2 3.664" fill="#2d2d2d"/><path d="M23.463 57.392c3.823.754 7.646 1.288 11.47 1.633v3.486c-.875-.078-1.75-.168-2.624-.267v-1.133a98.52 98.52 0 0 1-.976-.115v6.456c.356.044.711.085 1.067.125v2.353c-2.135-.24-4.27-.54-6.405-.909v-2.353c.355.062.711.121 1.067.179V60.39c-.325-.053-.65-.107-.976-.163v1.134c-.875-.15-1.749-.31-2.623-.483v-3.487m18.561 2.063c1.988.063 3.976.08 5.964.055v2.353c-.305.004-.61.006-.916.008v6.456c.305-.002.61-.004.916-.008v2.353a134.57 134.57 0 0 1-5.964-.056v-2.352l.778.022v-2.367c-.762-.02-1.525-.046-2.287-.08v2.367c.258.012.518.022.777.032v2.353a121.996 121.996 0 0 1-5.964-.369V67.87c.306.026.61.051.916.075V61.49l-.916-.076V59.06c1.988.172 3.976.293 5.964.368v2.353c-.26-.01-.519-.02-.777-.032v2.18c.762.034 1.525.061 2.287.08v-2.18c-.26-.007-.519-.014-.778-.023v-2.352" fill="#f9c869"/><path d="M55.629 61.569c-.616.038-1.23.074-1.846.105v2.267c.448-.023.895-.048 1.343-.074v1.635c-.448.027-.895.052-1.343.075v2.553a143.7 143.7 0 0 0 1.846-.105v-2.267c1.138-.072 2.277-.156 3.416-.25v4.62c-3.482.29-6.965.475-10.447.534v-2.353c.305-.005.61-.012.915-.019v-6.455l-.915.018V59.5a157.47 157.47 0 0 0 10.447-.535v4.333c-1.139.095-2.278.179-3.416.25v-1.98M70.5 66.473c.294-.041.515-.145.662-.31.148-.164.221-.409.221-.735v-.63c0-.325-.073-.55-.22-.671-.148-.123-.369-.163-.664-.121l-.93.13v2.467l.93-.13zm-.108-4.088c.295-.041.516-.144.664-.31.147-.164.22-.409.22-.734v-.517c0-.325-.073-.548-.22-.67-.148-.123-.369-.163-.664-.122-.274.04-.55.077-.823.115V62.5l.823-.115zm-6.009-3.943c2.385-.267 4.769-.579 7.153-.926 1.25-.182 2.237-.096 2.96.269.72.364 1.082 1.007 1.082 1.935 0 .46-.092.866-.275 1.221a3.411 3.411 0 0 1-.67.91 4.001 4.001 0 0 1-.832.618c-.29.16-.541.275-.755.346v.143c.223-.015.498-.011.824.01.325.021.635.102.93.241.295.14.546.358.755.654.208.296.313.712.313 1.247 0 .537-.117 1.007-.351 1.413-.234.407-.55.756-.946 1.048a5.124 5.124 0 0 1-1.38.71 9.131 9.131 0 0 1-1.655.397 220.99 220.99 0 0 1-7.153.926V67.25l.915-.105V60.69l-.915.105v-2.353m16.884 3.629c.468-.084.935-.17 1.403-.257l-.626-2.753-.152.028-.625 2.982zm1.068 2.46l.915-.17-.26-1.085c-.686.127-1.372.253-2.059.377-.08.392-.163.785-.244 1.177l.915-.166v2.354c-1.738.316-3.477.62-5.216.906V65.57l.61-.101c.86-3.08 1.72-6.164 2.578-9.251a350.56 350.56 0 0 0 5.552-1.023l2.577 8.306.61-.122v2.353a410.85 410.85 0 0 1-5.978 1.15V64.53m12.475-6.592c.295-.062.516-.18.664-.355.147-.175.221-.425.221-.75v-.517c0-.325-.074-.544-.22-.656-.149-.112-.37-.137-.665-.075l-.823.174v2.353l.823-.174zm-.823 4.277l1.007-.212v2.352a576.95 576.95 0 0 1-6.192 1.28v-2.353c.305-.06.61-.123.915-.184v-6.456l-.915.185v-2.353c2.384-.479 4.768-.976 7.152-1.484a7.68 7.68 0 0 1 1.686-.19c.503.007.928.1 1.273.279.346.178.613.453.801.823.188.37.282.852.282 1.445 0 .631-.135 1.21-.404 1.738-.27.527-.663.942-1.182 1.246l.015.14c.977-.068 1.464.39 1.464 1.376v1.104l.717-.156v2.353c-1.611.351-3.223.7-4.834 1.042v-3.37c0-.288-.034-.513-.1-.676a.573.573 0 0 0-.32-.333 1.285 1.285 0 0 0-.556-.07 5.892 5.892 0 0 0-.81.121v2.353m13.346-2.895c.295-.065.516-.185.664-.362.147-.175.221-.426.221-.751v-.63c0-.326-.074-.545-.22-.655-.149-.112-.37-.135-.665-.07l-.93.205v2.468l.93-.205zm-.107-4.08c.295-.064.517-.185.664-.36.147-.177.22-.427.22-.752v-.517c0-.325-.073-.543-.22-.654-.147-.111-.369-.134-.664-.07l-.823.181v2.354l.823-.181zm-6.009-3.386c2.385-.521 4.77-1.047 7.154-1.571 1.25-.275 2.236-.252 2.958.068.722.321 1.084.945 1.084 1.873 0 .459-.092.87-.275 1.236a3.708 3.708 0 0 1-.672.95 4.41 4.41 0 0 1-.83.67c-.29.178-.542.31-.756.395v.143c.224-.03.499-.044.824-.044.325 0 .636.061.93.184.296.122.546.325.755.61.209.284.313.694.313 1.23a2.89 2.89 0 0 1-.35 1.432c-.235.42-.55.787-.946 1.104a5.656 5.656 0 0 1-1.38.797 9.966 9.966 0 0 1-1.655.513c-2.384.525-4.77 1.05-7.154 1.57v-2.352l.915-.2v-6.456l-.915.2v-2.352m19.156-1.807c-.615.128-1.23.257-1.844.387v2.267l1.341-.282v1.635l-1.341.283v2.553c.614-.13 1.23-.259 1.844-.387v-2.267c1.14-.238 2.278-.472 3.417-.703v4.62a745.243 745.243 0 0 0-10.447 2.203v-2.352l.915-.2V51.35l-.915.199v-2.353a737.64 737.64 0 0 1 10.447-2.204v4.333c-1.139.23-2.278.465-3.417.703v-1.98m10.188.332c.296-.055.516-.167.664-.338.148-.17.221-.418.221-.743v-.517c0-.325-.073-.545-.22-.662-.149-.117-.37-.148-.664-.093l-.823.154v2.353l.823-.154zm-.822 4.257l1.005-.188v2.353A420.33 420.33 0 0 0 124.551 58v-2.353l.916-.183v-6.455l-.916.182v-2.353a403.85 403.85 0 0 1 7.154-1.373 7.342 7.342 0 0 1 1.685-.13c.503.025.928.136 1.274.329.345.194.612.48.8.86.188.379.282.866.282 1.458 0 .632-.134 1.204-.404 1.72-.27.513-.663.911-1.182 1.193l.016.14c.976-.026 1.464.457 1.464 1.442v1.104l.716-.12v2.353c-1.611.268-3.223.552-4.834.846v-3.371c0-.287-.034-.513-.1-.678a.596.596 0 0 0-.32-.343 1.286 1.286 0 0 0-.556-.084 5.569 5.569 0 0 0-.808.101v2.353m16.182-2.808c.335-.043.574-.12.716-.234a.553.553 0 0 0 .214-.457.395.395 0 0 0-.176-.33c-.117-.085-.353-.173-.71-.262-.752-.172-1.41-.34-1.974-.508-.565-.166-1.033-.371-1.403-.615a2.317 2.317 0 0 1-.831-.92c-.184-.37-.275-.837-.275-1.402 0-.535.089-1.03.267-1.48.177-.452.467-.858.87-1.217.401-.358.935-.662 1.6-.91.666-.248 1.488-.435 2.464-.555.884-.11 1.718-.123 2.5-.043.784.08 1.434.235 1.953.46v2.568c-1.067.108-2.135.225-3.203.35 0-.277-.08-.457-.244-.538a1.034 1.034 0 0 0-.595-.079c-.335.041-.576.112-.724.211-.147.1-.22.25-.22.452 0 .162.078.271.235.328.158.057.394.114.71.171.59.11 1.146.236 1.67.378.523.141.984.34 1.38.594.397.255.709.582.938.98.228.397.343.902.343 1.514 0 1.244-.427 2.21-1.28 2.908-.855.698-2.106 1.14-3.753 1.345-.936.117-1.835.159-2.7.125-.864-.034-1.555-.116-2.074-.25v-2.841c1.118-.164 2.237-.32 3.355-.467 0 .287.062.491.184.614s.375.16.762.11m12.751-9.79c1.988-.113 3.976-.188 5.963-.223v2.352c-.305.006-.61.012-.914.02v6.455l.914-.019v2.353a151.44 151.44 0 0 0-5.963.225v-2.354l.777-.042V48.44c-.762.04-1.525.085-2.287.136v2.367l.778-.05v2.353a176.02 176.02 0 0 0-5.964.473v-2.353c.305-.03.61-.058.916-.086v-6.456l-.916.086v-2.352c1.988-.192 3.976-.351 5.964-.474v2.353l-.778.05v2.18c.762-.05 1.525-.095 2.287-.135V44.35l-.777.042V42.04m12.155 8.615c.346.01.605-.065.778-.226.173-.162.26-.43.26-.802v-4.333c0-.372-.087-.646-.26-.82-.173-.172-.431-.265-.778-.275-.345-.01-.605.069-.777.232-.174.164-.26.432-.26.805v4.333c0 .373.086.645.26.816.172.172.432.26.777.27zm5.826-2.929c0 1.052-.137 1.934-.41 2.646-.276.712-.665 1.28-1.168 1.708-.503.427-1.116.728-1.838.904-.722.176-1.525.25-2.41.225-.884-.025-1.687-.143-2.41-.361-.722-.217-1.334-.552-1.837-1.01-.503-.457-.893-1.048-1.167-1.776-.275-.729-.412-1.619-.412-2.67 0-1.043.137-1.935.412-2.675.274-.74.664-1.341 1.167-1.802a4.466 4.466 0 0 1 1.838-.999c.722-.203 1.525-.295 2.41-.27.884.025 1.687.161 2.41.406a4.805 4.805 0 0 1 1.837 1.104c.503.49.892 1.115 1.167 1.871.274.757.411 1.657.411 2.7m6.193-.244c.285.037.503-.005.656-.128.152-.123.229-.347.229-.672v-.517c0-.324-.074-.57-.222-.732-.147-.164-.368-.266-.663-.304a85.48 85.48 0 0 0-.518-.066v2.353l.518.066zm.945 6.582a114.423 114.423 0 0 0-6.649-.72v-2.353c.305.024.61.05.915.076v-6.456a93.99 93.99 0 0 0-.915-.076v-2.353c2.283.181 4.566.428 6.848.749.62.087 1.183.23 1.685.429.504.198.928.462 1.274.787.346.327.612.723.8 1.186.189.463.283 1.002.283 1.614 0 .621-.094 1.128-.282 1.52a2.076 2.076 0 0 1-.801.903c-.346.21-.77.333-1.274.374a7.717 7.717 0 0 1-1.685-.07 117.37 117.37 0 0 0-1.662-.221v2.066c.487.061.976.125 1.463.193v2.352" fill="#fff"/><path d="M35.968 10.041a2.945 2.945 0 0 1-.291-.059c-1.51-.385-2.403-1.854-1.993-3.273.41-1.42 1.971-2.26 3.48-1.875 1.509.386 2.402 1.855 1.992 3.274-.384 1.328-1.775 2.15-3.188 1.933zm22.451 7.85l.63-.817a4.01 4.01 0 0 1 .957-.886l-19.381-4.956a5.403 5.403 0 0 0 1.44-2.38c.847-2.932-.993-5.956-4.11-6.752-3.117-.798-6.331.933-7.18 3.866-.847 2.932.994 5.955 4.111 6.752.092.023.182.037.274.056l18.994 4.858a9.3 9.3 0 0 1 3.114 1.452c.423-.36.813-.755 1.151-1.193" fill="#2d2d2d"/><path d="M34.87 29.592a2.9 2.9 0 0 1 1.098-.4 2.968 2.968 0 0 1 1.925.359c.599.342 1.065.89 1.263 1.574.41 1.42-.483 2.888-1.991 3.274-1.51.385-3.071-.455-3.481-1.874-.33-1.143.185-2.317 1.187-2.933zm26.118-10.334c0-1.034.891-1.87 1.99-1.87 1.098 0 1.99.836 1.99 1.87 0 1.035-.892 1.872-1.99 1.872-1.099 0-1.99-.837-1.99-1.872zM30.838 33.45c.927 2.82 4.065 4.466 7.117 3.684 3.117-.796 4.957-3.82 4.11-6.751a5.316 5.316 0 0 0-.838-1.684 5.557 5.557 0 0 0-.602-.697l49.25-12.594a.39.39 0 0 0 .295-.308l.004-.062a.374.374 0 0 0-.18-.318l-.317-.2c-2.02-1.274-4.478-1.776-6.876-1.406l-20.94 3.222a3.29 3.29 0 0 0-2.106 1.222l-.63.816c-1.217 1.578-2.972 2.718-4.971 3.23L35.16 26.46c-.092.018-.182.033-.274.055-.287.074-.56.172-.823.281-1.69.7-2.895 2.091-3.32 3.714-1.163.226-3.74.956-5.7 3.17a1.377 1.377 0 0 0-.355.919c0 .412.186.82.55 1.105.648.508 1.612.426 2.152-.184 1.116-1.26 2.555-1.826 3.449-2.07" fill="#2d2d2d"/><path d="M48.8 69.517c0-.625.145-1.033.399-1.13.324-.125.397-.763.397-3.44 0-2.744-.065-3.286-.397-3.286-.285 0-.398-.29-.398-1.02v-1.022l4.656-.186c2.56-.103 4.828-.253 5.038-.334.313-.12.382.24.382 2.003v2.15h-1.171c-.645 0-1.36.073-1.591.161-.34.13-.42-.044-.42-.928 0-.975-.067-1.089-.641-1.089-1.228 0-1.48.253-1.48 1.487 0 1.066.056 1.165.663 1.165.53 0 .663.132.663.663 0 .53-.133.663-.663.663-.628 0-.663.078-.663 1.474v1.474l.994-.082c.96-.08.997-.12 1.075-1.177.075-1.036.131-1.103 1.06-1.256 2.225-.368 2.174-.413 2.174 1.937 0 1.158-.108 2.173-.24 2.255-.133.082-2.4.227-5.039.323l-4.797.173zm15.646-1.119c0-.73.124-.985.53-1.092.494-.129.53-.361.53-3.422 0-3.107-.028-3.283-.53-3.283-.442 0-.53-.177-.53-1.061 0-.832.1-1.062.464-1.066.255-.003 1.776-.18 3.38-.396 5.739-.767 7.027-.483 7.027 1.55 0 1.312-.5 2.132-1.67 2.737l-.842.436 1.223.356c1.922.56 2.332 2.224.928 3.766-.951 1.044-1.912 1.375-5.553 1.91-4.954.73-4.957.73-4.957-.435zm6.629-2.229c1.014-1.015.411-2.566-.872-2.244-.66.165-.72.288-.72 1.477 0 1.12.073 1.297.531 1.297.292 0 .77-.238 1.06-.53zm.197-3.977c.037 0 .068-.465.068-1.033 0-1.105-.35-1.42-1.3-1.172-.468.122-.556.348-.556 1.421v1.277l.86-.247c.473-.135.89-.246.928-.246zm5.106 4.653c0-.506.166-1.01.371-1.127.204-.116.933-2.24 1.62-4.72.687-2.479 1.28-4.54 1.316-4.581.086-.096 5.284-1.104 5.346-1.037.064.069 2.484 7.887 2.484 8.025 0 .062.179.112.398.112.287 0 .398.295.398 1.061 0 .583-.03 1.06-.067 1.06-.037 0-1.32.24-2.85.531-1.531.292-2.814.53-2.85.53-.037 0-.067-.477-.067-1.06 0-.766.11-1.061.398-1.061.247 0 .397-.25.397-.663 0-.526-.133-.663-.645-.663-1.103 0-2.006.475-2.006 1.054 0 .3.175.537.397.537.286 0 .398.292.398 1.033v1.033l-2.32.426c-1.276.234-2.41.426-2.519.426-.11 0-.199-.413-.199-.916zm6.327-5.058c.17-.171-.538-2.777-.755-2.777-.115 0-.29.447-.39.994-.099.547-.249 1.28-.333 1.63-.141.587-.095.62.614.442.422-.106.81-.236.864-.29zm6.135 2.633c0-.73.125-.985.531-1.091.494-.13.53-.362.53-3.422 0-3.107-.028-3.284-.53-3.284-.438 0-.53-.177-.53-1.016v-1.015l4.044-.844c4.483-.935 4.913-.973 5.888-.529 1.335.608 1.419 3.24.146 4.595l-.54.576.666.304c.556.254.668.487.668 1.399 0 .882.08 1.064.412.936.34-.13.4.037.332.957l-.081 1.115-1.459.293c-.802.161-1.786.376-2.187.478l-.73.186-.003-1.53c-.006-2.518-.413-3.229-1.625-2.844-.383.122-.493.42-.493 1.332 0 .999.08 1.176.53 1.176.438 0 .53.176.53 1.016v1.016l-2.717.578c-1.495.317-2.868.576-3.05.574-.203-.001-.331-.371-.331-.955zm6.215-6.465c.575-.218.68-.424.68-1.325 0-1.043-.021-1.068-.928-1.068h-.928v1.326c0 1.4.09 1.48 1.176 1.067zm6.249 3.814c0-.73.124-.985.53-1.092.494-.129.53-.361.53-3.422 0-3.107-.028-3.284-.53-3.284-.438 0-.53-.176-.53-1.012v-1.012l3.91-.848c4.383-.95 5.517-1.026 6.372-.427.458.32.59.674.59 1.582 0 .985-.148 1.317-.938 2.106-.515.516-1.052.937-1.193.937a.262.262 0 0 0-.256.265c0 .146.395.266.877.266 1.282 0 1.828.51 1.828 1.707 0 1.236-.674 2.206-2.066 2.976-.896.495-7.686 2.21-8.75 2.21-.253 0-.374-.307-.374-.952zm6.431-2.56c1.166-.892.647-2.775-.674-2.444-.66.166-.72.288-.72 1.478 0 1.074.083 1.297.48 1.297.264 0 .675-.15.914-.332zm.131-4.242c.389-.31.448-1.953.079-2.181-.14-.086-.557-.08-.928.013-.61.153-.675.296-.675 1.484 0 1.241.033 1.305.596 1.132.329-.1.746-.302.928-.448zm5.635 4.043c0-.766.11-1.061.398-1.061.332 0 .398-.545.398-3.315s-.066-3.314-.398-3.314c-.285 0-.398-.291-.398-1.026v-1.027l1.525-.308c.838-.169 3.106-.648 5.038-1.064l3.513-.757v4.122l-.994.18c-.547.1-1.263.246-1.59.324-.536.129-.598.045-.598-.813 0-.989-.155-1.086-1.259-.79-.512.137-.597.338-.597 1.418 0 1.2.031 1.252.663 1.131.565-.107.663-.028.663.539 0 .488-.176.71-.663.831-.596.15-.663.3-.663 1.487 0 1.126.076 1.321.509 1.321 1.08 0 1.347-.289 1.347-1.453 0-1.1.027-1.135.995-1.297a19.91 19.91 0 0 0 1.59-.33c.585-.16.597-.118.597 2.055v2.218l-4.84 1.003c-2.66.551-4.928.999-5.037.994-.11-.004-.199-.485-.199-1.068z" fill="#fff"/><path d="M124.638 56.819c0-.818.114-1.07.53-1.18.495-.129.53-.361.53-3.422 0-3.107-.028-3.284-.53-3.284-.402 0-.529-.175-.526-.729.002-.401.092-.867.2-1.035.215-.34 6.869-1.683 8.337-1.683.543 0 1.226.23 1.632.55.57.447.699.77.699 1.736 0 1.228-.533 2.588-1.121 2.86-.272.127-.273.188-.001.314.731.34 1.122.984 1.122 1.851 0 .631.122.91.398.91.283 0 .397.288.397 1.006v1.006l-2.376.406-2.377.406-.076-2.142-.076-2.141-.862-.083-.862-.083v1.373c0 1.255.047 1.361.545 1.231.492-.128.537-.038.464.942l-.08 1.084-2.984.574-2.983.573zm6.615-6.675c.174-.21.278-.776.231-1.26-.075-.781-.173-.879-.88-.879-.76 0-.799.055-.876 1.26-.076 1.18-.04 1.26.564 1.26.355 0 .787-.172.96-.381zm10.687 4.066c-.182-.19-.331-.841-.331-1.448v-1.104l1.49-.175c.944-.111 1.618-.069 1.84.115.57.473 1.84.204 1.84-.39 0-.403-.414-.635-1.988-1.114-2.35-.716-3.183-1.492-3.181-2.965.002-2.404 1.964-3.79 5.621-3.976 3.336-.17 3.658-.047 3.658 1.382 0 .813-.125 1.208-.419 1.32-.696.267-2.371.182-2.69-.137-.442-.442-1.663-.055-1.663.526 0 .373.349.56 1.524.819 2.934.644 4.012 1.913 3.512 4.13-.478 2.123-2.311 3.078-6.23 3.246-1.949.084-2.74.023-2.983-.23zm10.275-1.83c0-.766.11-1.06.398-1.06.332 0 .398-.545.398-3.315s-.066-3.314-.398-3.314c-.285 0-.398-.29-.398-1.023v-1.022l1.79-.169c.985-.093 2.237-.17 2.784-.171.984-.002.995.01.995 1.059 0 .766-.11 1.06-.398 1.06-.295 0-.398.31-.398 1.194 0 1.181.01 1.193.907 1.193 1.511 0 1.745-.2 1.745-1.487 0-.858-.105-1.165-.398-1.165-.287 0-.398-.294-.398-1.06v-1.061h5.569v1.06c0 .767-.11 1.061-.398 1.061-.332 0-.398.545-.398 3.315s.066 3.314.398 3.314c.287 0 .398.295.398 1.061v1.06h-2.365c-1.3 0-2.553.073-2.784.162-.34.13-.42-.042-.42-.9 0-.698.136-1.113.398-1.213.273-.105.398-.531.398-1.354v-1.202h-2.652v1.326c0 1.001.097 1.326.398 1.326.285 0 .398.29.398 1.022v1.022l-1.79.17c-.985.092-2.237.17-2.784.17-.984.002-.995-.01-.995-1.059zm17.02.513c-2.743-.54-4.03-2.281-4.02-5.436.012-3.968 2.085-5.928 5.94-5.62 3.073.248 4.637 1.596 5.22 4.503.665 3.306-.744 5.96-3.473 6.545-1.527.328-2.036.329-3.667.008zm2.61-2.784c.336-.887.332-4.392-.008-5.285-.222-.585-.403-.684-1.127-.614l-.862.083-.075 2.878c-.082 3.104.086 3.618 1.175 3.618.44 0 .717-.21.896-.68zm9.141 3.549c-4.067-.458-3.845-.369-3.845-1.555 0-.872.09-1.048.53-1.048.502 0 .53-.177.53-3.315s-.028-3.315-.53-3.315c-.442 0-.53-.176-.53-1.06 0-.584.09-1.06.199-1.06 1.552.002 7.624.948 8.462 1.318 1.627.718 2.418 2.494 1.926 4.321-.375 1.393-1.407 1.83-3.799 1.606l-1.75-.163v1.078c0 .982.07 1.093.795 1.253.72.157.796.274.796 1.214 0 .675-.116 1.026-.332 1.002l-2.452-.276zm2.736-7.062c.096-.998-.314-1.64-1.045-1.64-.422 0-.498.206-.498 1.343 0 1.31.019 1.342.73 1.26.61-.07.742-.227.813-.963z" fill="#f9c869"/><path d="M36.653 83.92c-7.01-.579-14.458-1.872-20.71-3.596l-3.553-.98V60.161c0-10.55.095-19.183.21-19.183.116 0 1.243.3 2.504.665 5.509 1.597 12.357 2.895 19.162 3.631 4.896.53 20.577.447 26.384-.14 12.535-1.266 21.373-2.84 46.404-8.263 32.452-7.032 43.917-8.69 60.06-8.683 11.784.004 21.323 1.248 31.096 4.053 1.498.43 2.78.782 2.85.782.07 0 .128 8.651.128 19.225 0 10.573-.05 19.224-.112 19.224-.06 0-1.533-.41-3.272-.91-15.04-4.329-32.887-5.128-53.288-2.387-9.738 1.308-17.304 2.751-38.013 7.248-24.074 5.227-33.168 6.843-45.853 8.15-4.593.472-19.811.693-23.997.347zm4.64-14.569c0-.73-.12-1.326-.265-1.326-.146 0-.265-.477-.265-1.06 0-1.036.022-1.061.928-1.061.902 0 .928.03.928 1.032 0 .673-.138 1.086-.398 1.185-.272.105-.397.53-.397 1.354v1.202h6.364v-1.193c0-1.017-.079-1.194-.53-1.194-.502 0-.531-.176-.531-3.182 0-3.033.025-3.182.545-3.182.484 0 .536-.139.464-1.26l-.081-1.259-3.116-.074-3.115-.075v1.334c0 1.01.096 1.334.397 1.334.278 0 .398.28.398.928 0 .884-.044.929-.928.929s-.928-.045-.928-.929c0-.51.12-.928.265-.928.146 0 .265-.596.265-1.325 0-1.32-.004-1.326-.862-1.328-.474 0-1.846-.078-3.049-.172l-2.188-.17v1.257c0 1.035.094 1.282.53 1.396.492.129.531.362.531 3.158 0 2.841-.031 3.018-.53 3.018-.46 0-.53.177-.53 1.313v1.312l1.524.096c.839.052 2.21.118 3.05.146l1.524.05zm17.353.897c.332-.127.413-.629.413-2.552V65.3l-1.23.169c-.677.093-1.452.169-1.724.169-.407 0-.493.206-.493 1.193 0 1.149-.03 1.193-.795 1.193-.766 0-.796-.044-.796-1.193 0-1.096.054-1.193.663-1.193.58 0 .663-.115.663-.928 0-.814-.082-.928-.663-.928-.597 0-.663-.107-.663-1.061 0-1.002.044-1.06.796-1.06.742 0 .795.065.795.994v.994l1.723-.089 1.724-.089V61.08c0-2.057-.058-2.37-.413-2.234-.227.087-2.614.238-5.303.335l-4.89.177v1.284c0 1.108.073 1.284.53 1.284.5 0 .53.177.53 3.182 0 3.006-.03 3.182-.53 3.182-.454 0-.53.177-.53 1.235v1.235l4.89-.176c2.69-.098 5.076-.248 5.303-.336zm-26.103-1.427c0-1.15-.07-1.326-.53-1.326-.501 0-.53-.177-.53-3.182 0-2.652.065-3.182.397-3.182.243 0 .398.247.398.637 0 .577.127.646 1.336.73l1.336.091-.077-1.848-.076-1.849-2.785-.31c-1.53-.171-3.888-.503-5.237-.737-3.715-.646-3.513-.72-3.513 1.281 0 .94.09 1.763.199 1.83.11.068.766.208 1.458.312 1.178.176 1.26.15 1.26-.394 0-.348.133-.539.331-.473.234.078.354 1.02.406 3.204.072 2.958.051 3.094-.464 3.094-.461 0-.538.17-.538 1.194 0 .656.03 1.202.066 1.213.05.014 4.43.71 6.364 1.01.11.017.199-.566.199-1.295zm36.792.276c4.873-.717 6.327-1.516 6.61-3.631.156-1.174-.647-2.479-1.525-2.479-.689 0-.647-.17.263-1.08.93-.93 1.244-2.13.824-3.146-.609-1.469-1.772-1.607-7.498-.888l-3.646.457v1.268c0 .95.1 1.268.397 1.268.33 0 .398.512.398 3.02 0 2.441-.076 3.051-.398 3.174-.272.105-.397.531-.397 1.355 0 1.452-.138 1.434 4.972.682zm10.473-1.649l1.79-.296v-1.268c0-.975-.102-1.287-.445-1.353-.412-.08-.41-.12.02-.55.254-.255.74-.464 1.079-.464.78 0 1.087.695.389.877-.413.108-.512.372-.512 1.352 0 .67.078 1.218.174 1.218.096 0 1.527-.252 3.182-.56l3.008-.56v-1.296c0-.948-.102-1.296-.38-1.296-.21 0-.44-.209-.515-.464-.344-1.189-2.36-7.63-2.404-7.685-.14-.17-5.588 1.046-5.732 1.28-.092.149-.688 2.186-1.323 4.527-.635 2.34-1.31 4.315-1.5 4.388-.219.084-.344.616-.344 1.463v1.33l.862-.173c.474-.095 1.667-.307 2.651-.47zm12.463-2.401l2.85-.593V63.19c0-1.1-.07-1.264-.546-1.264-.469 0-.534-.14-.464-.994.072-.862.17-.994.746-.994.647 0 .664.051.74 2.187.042 1.203.124 2.188.182 2.188.09 0 .815-.157 4.315-.938.52-.116.596-.3.596-1.445 0-1.058-.077-1.283-.398-1.16-.314.12-.397-.08-.397-.961 0-.856-.113-1.144-.485-1.241-.455-.12-.446-.202.152-1.367.812-1.584.688-3.084-.329-3.958-.903-.778-1.341-.76-6.299.247l-4.176.848v1.275c0 .957.1 1.275.398 1.275.33 0 .397.513.397 3.021 0 2.441-.076 3.05-.397 3.174-.509.195-.57 2.556-.067 2.556.183 0 1.614-.266 3.182-.592zm13.34-2.862c5.266-1.141 6.821-2.06 7.175-4.242.201-1.241-.657-2.38-1.794-2.38h-.797l.852-.717c2.322-1.954 1.715-4.838-1.022-4.857-.394-.003-2.537.381-4.76.854l-4.044.858v1.268c0 .95.1 1.268.397 1.268.33 0 .398.512.398 3.02 0 2.441-.076 3.05-.398 3.174-.52.2-.568 2.556-.051 2.556.19 0 2.01-.36 4.043-.802zm12.845-2.78a903.55 903.55 0 0 0 4.972-1.065c.565-.129.597-.264.597-2.55v-2.415l-.862.173c-.474.095-1.31.244-1.856.332-.969.155-.995.188-.995 1.29 0 1.13-.274 1.453-1.23 1.453-.296 0-.371-.273-.31-1.127.068-.937.183-1.141.679-1.212.486-.069.596-.253.596-.994 0-.793-.084-.91-.663-.91-.577 0-.663-.116-.663-.9 0-.575.151-.957.42-1.06.907-.348 1.171-.174 1.171.767 0 .51.09.923.2.917.109-.007.914-.16 1.79-.342l1.59-.33.078-2.086c.043-1.147-.016-2.172-.132-2.276-.116-.105-2.538.301-5.382.903l-5.17 1.093-.081 1.26c-.072 1.12-.02 1.259.464 1.259.518 0 .545.15.545 3.031 0 2.8-.041 3.045-.53 3.2-.734.233-.794 2.52-.067 2.519.255 0 2.433-.419 4.84-.93zm10.938-2.245l1.525-.31v-1.324c0-1.204-.048-1.31-.53-1.157-.472.15-.53.048-.53-.928 0-1.039.037-1.091.729-1.012.72.083.73.107.805 2.23l.076 2.148 2.443-.434 2.443-.434.08-1.25c.063-.966-.008-1.248-.315-1.248-.266 0-.423-.325-.478-.988-.06-.712-.25-1.071-.68-1.284-.592-.294-.592-.3-.076-.768.827-.748 1.148-2.052.813-3.297-.566-2.103-1.536-2.255-7.3-1.14l-3.711.72-.081 1.257c-.064.995.005 1.257.331 1.257.603 0 .617 6.037.015 6.269-.277.106-.398.537-.398 1.417v1.265l1.657-.34c.912-.187 2.344-.48 3.182-.65zm19.144-2.962c1.542-.512 2.727-1.819 2.94-3.242.322-2.148-.875-3.484-3.686-4.113-.821-.184-1.493-.449-1.493-.589 0-.43.838-.603 1.357-.28.546.341 1.595.393 2.852.142.793-.159.829-.222.829-1.465 0-1.172-.072-1.327-.73-1.582-.403-.156-1.797-.238-3.122-.183-4.05.17-6.02 1.537-6.02 4.18 0 1.753.679 2.528 2.7 3.083 2.074.57 2.719.868 2.53 1.172-.211.342-1.274.34-1.618-.003-.16-.16-.922-.198-1.909-.094l-1.642.171v1.531c0 .968.122 1.587.331 1.682.575.26 5.588-.047 6.68-.41zm35.414-1.27c0-1.23-.044-1.313-.73-1.392-.606-.07-.742-.228-.811-.941l-.083-.858 2.148.046c1.977.042 2.202-.008 2.82-.627 1.415-1.414.897-4.521-.934-5.602-.73-.432-3.773-.978-7.647-1.373l-1.657-.168v1.339c0 1.013.096 1.339.397 1.339.331 0 .398.515.398 3.049s-.067 3.05-.398 3.05c-.3 0-.397.321-.397 1.306v1.307l1.392.156c.766.086 2.168.259 3.116.384.947.125 1.872.243 2.055.26.224.023.331-.387.331-1.275zm-28.174.605l2.188-.17v-1.287c0-.967-.099-1.287-.398-1.287-.287 0-.398-.294-.398-1.06v-1.06h2.121v1.06c0 .782-.107 1.06-.412 1.06-.325 0-.395.26-.331 1.23l.08 1.228 2.902-.051c1.595-.028 2.998-.111 3.116-.184.118-.073.214-.662.214-1.31 0-1.001-.08-1.178-.53-1.178-.5 0-.53-.177-.53-3.018 0-2.796.039-3.029.53-3.157.433-.114.53-.362.53-1.357v-1.218h-2.762c-1.52 0-2.952.072-3.182.16-.58.223-.6 2.491-.022 2.491.287 0 .398.295.398 1.061v1.06h-1.061c-1.035 0-1.06-.021-1.06-.927 0-.648.12-.928.397-.928.302 0 .398-.328.398-1.358v-1.357l-2.85.192c-1.568.106-2.94.246-3.05.312-.11.067-.199.65-.199 1.298 0 .87.104 1.178.398 1.178.331 0 .398.53.398 3.182 0 2.651-.067 3.182-.398 3.182-.295 0-.398.31-.398 1.193 0 1.374-.148 1.336 3.911 1.02zm18.604-.981c1.404-.692 2.116-1.905 2.33-3.969.338-3.278-1.123-5.907-3.71-6.675-2.668-.793-5.05-.371-6.586 1.164-1.188 1.188-1.661 2.76-1.488 4.941.243 3.058 1.737 4.761 4.521 5.153 1.908.269 3.556.064 4.933-.614zM34.6 36.904c-1.742-.649-2.782-1.622-3.795-3.553-.114-.217-2.054.841-3.019 1.647-1.289 1.077-1.852 1.167-2.543.404-.384-.425-.434-.69-.236-1.253.324-.92 2.72-2.593 4.534-3.164.776-.245 1.41-.584 1.41-.755 0-.69 1.665-2.551 2.725-3.047.616-.288 5.595-1.663 11.064-3.057 5.47-1.394 10.54-2.813 11.27-3.153 1.339-.624 2.24-1.378 3.735-3.122.493-.576 1.23-1.072 1.856-1.25 1.532-.433 21.648-3.465 22.992-3.465.634 0 1.74.177 2.46.394 1.374.413 3.18 1.4 2.962 1.619-.07.07-11.091 2.93-24.491 6.354s-24.529 6.286-24.73 6.36c-.308.111-.302.209.033.592 1.736 1.98 1.668 4.902-.161 6.914-1.37 1.507-4.21 2.226-6.066 1.535zm3.255-2.692c.787-.407 1.582-1.604 1.582-2.382 0-1.338-1.583-2.784-3.05-2.784-.894 0-2.164.663-2.51 1.311-.351.656-.352 2.29-.002 2.944.637 1.19 2.581 1.634 3.98.911zm26.706-13.82c.742-.816.754-1.416.048-2.315-1.08-1.372-3.694-.662-3.694 1.004 0 1.04.294 1.517 1.167 1.894 1.01.437 1.7.274 2.48-.583z" fill="#333"/><path d="M75.515 23.772l-9.662-1.507 5.337-1.383c2.935-.76 5.613-1.381 5.95-1.38.65.002 14.747 3.569 14.965 3.787.252.252-1.684 1.237-3.22 1.637-.86.224-2.047.396-2.636.38-.589-.014-5.42-.704-10.734-1.534zm75.054 85.464c-2.009-.54-3.909-1.637-4.958-2.863-1.627-1.9-1.52-3.77.33-5.748l1.171-1.252-3.92-.929-8.693-2.056-4.773-1.129.09-1.116c.077-.956-.015-1.199-.633-1.685-1.537-1.209-3.832-.286-3.832 1.541 0 .807-.002.808-1.525.804-3.635-.008-35.419-1.319-35.566-1.466-.295-.295 1.751-1.932 2.793-2.235.66-.192 7.407-.396 19.183-.578l18.164-.282 12.728 3.576c7.346 2.063 13.721 3.707 15.077 3.887 4.521.6 7.346 2.352 8.157 5.06.789 2.632-1.77 5.38-6.046 6.495-1.907.496-5.858.485-7.747-.024zm8.849-3.004c1.703-.839 2.525-1.76 2.525-2.83 0-.858-1.803-2.2-3.755-2.793-2.665-.81-6.432-.631-8.548.404-3.232 1.582-3.391 3.56-.407 5.072 1.92.973 3.007 1.173 5.873 1.083 2.275-.072 2.78-.182 4.312-.936zM139.272 92.14c-1.896-.557-3.376-1.021-3.288-1.03.268-.026 10.425-2.42 10.785-2.541.214-.072-.041-.493-.699-1.15-3.333-3.333-.986-7.492 5.026-8.91 6.96-1.64 14.62 2.23 13.278 6.709-.386 1.288-1.823 2.777-3.503 3.628-1.44.73-4.147 1.443-5.502 1.45-.48.001-3.216.66-6.08 1.461-2.865.803-5.515 1.445-5.89 1.429-.374-.017-2.231-.487-4.127-1.045zm19.216-4.938c1.671-.54 3.455-2.09 3.455-3.002 0-.95-1.797-2.475-3.605-3.058-2.082-.672-5.536-.678-7.59-.016-1.944.628-3.654 2.052-3.654 3.043 0 .75 1.145 2.056 2.342 2.672 2.108 1.084 6.297 1.25 9.052.361zM22.583 101.95c-5.757-.444-12.648-1.632-17.876-3.083l-2.553-.709 2.17-9.319 2.168-9.319-2.085-9.26c-1.146-5.094-2.086-9.396-2.089-9.56-.002-.19.899-.024 2.449.45 1.349.411 2.96.879 3.58 1.038l1.126.29v17.434l2.955 3.668c3.526 4.378 9.591 11.442 13.416 15.627l2.764 3.023-1.679-.037c-.923-.021-2.879-.13-4.346-.244z" fill="#333"/><path d="M29.224 98.894c-5.457-5.903-14.561-16.524-14.347-16.739.049-.048 1.776.327 3.838.833 3.87.95 11.164 2.273 12.536 2.273.428 0 .836.15.906.334.07.184.097 3.962.058 8.396l-.07 8.062zM206.39 95.49c-6.259-3.214-13.366-6.084-19.588-7.912l-2.087-.613 3.148-2.366c3.77-2.835 11.102-7.79 13.947-9.428l2.049-1.18.072-8.665.072-8.666 3.514 1.704c1.932.936 3.513 1.857 3.513 2.045 0 .188-.94 3.757-2.09 7.931l-2.089 7.589 2.088 10.698c1.148 5.885 2.088 10.788 2.089 10.898.004.33-.237.224-4.638-2.035z" fill="#333"/><path d="M181.067 77.571v-8.22h.774c1.955 0 11.381 1.852 15.624 3.07l1.417.406-3.446 2.343a175.529 175.529 0 0 0-11.503 8.55c-1.413 1.14-2.636 2.071-2.718 2.071-.082 0-.148-3.699-.148-8.22z" fill="#333"/><path d="M43.065 70.484c-.963-.101-.994-.137-.994-1.149 0-.752.112-1.045.398-1.045.293 0 .398-.305.398-1.16 0-1.087-.053-1.17-.83-1.326-1.49-.298-1.557-.253-1.557 1.047 0 .724.16 1.372.398 1.61.219.219.398.747.398 1.174 0 .752-.041.777-1.287.777a34.7 34.7 0 0 1-2.917-.17l-1.63-.171v-1.023c0-.704.117-1.023.374-1.023.273 0 .399-.45.465-1.657.153-2.778-.056-4.972-.472-4.972-.254 0-.367-.34-.367-1.099V59.2l2.702.186c1.486.102 2.799.246 2.917.319.358.22.24 1.363-.183 1.787-.223.223-.398.871-.398 1.477v1.08h2.387v-1.194c0-.883-.104-1.193-.398-1.193-.287 0-.398-.294-.398-1.06V59.54h5.834v1.03c0 .806-.115 1.06-.53 1.168-.494.13-.531.362-.531 3.37 0 3.009.037 3.242.53 3.37.416.11.53.362.53 1.17v1.029l-1.922-.045c-1.057-.024-2.37-.091-2.917-.148zM29.144 69.41l-2.983-.406v-1.02c0-.843.092-1.02.53-1.02.502 0 .53-.176.53-3.286 0-2.752-.067-3.312-.419-3.447-.708-.272-.906-.184-.906.403 0 .49-.109.541-.829.397-.455-.09-.992-.165-1.193-.165-.269 0-.364-.418-.364-1.591 0-1.87-.318-1.784 3.977-1.08 1.677.274 3.958.582 5.07.685l2.02.185.168 1.607c.092.884.135 1.64.096 1.679-.04.04-.57.005-1.18-.077-.87-.117-1.125-.27-1.188-.712-.05-.35-.306-.596-.677-.648-.591-.084-.597-.056-.597 3.23 0 3.082.038 3.327.53 3.483.413.131.531.402.531 1.212 0 .573-.03 1.028-.066 1.01-.037-.018-1.409-.216-3.05-.439zm95.659-12.559c0-.487.192-.973.464-1.172.396-.29.464-.792.464-3.428 0-2.667-.064-3.125-.464-3.35-.511-.285-.63-1.425-.179-1.704.42-.26 3.145-.868 5.839-1.303 3.365-.544 4.482-.06 4.482 1.944 0 1.01-.438 2.2-.954 2.593-.347.265-.31.395.277.983.372.372.677.966.677 1.32 0 .353.185.796.411.983.25.208.38.661.332 1.155-.077.788-.14.824-1.936 1.134-1.021.175-1.997.327-2.17.336-.201.01-.379-.74-.498-2.105l-.185-2.122h-.894c-.885 0-.893.012-.893 1.218 0 .995.097 1.244.53 1.357.398.104.53.362.53 1.036 0 .493-.046.897-.103.897-.057 0-1.263.239-2.681.53-1.418.292-2.684.53-2.813.53-.13 0-.236-.374-.236-.832zm6.629-6.99c.34-.894-.09-1.988-.78-1.988-.64 0-1.076.744-1.076 1.838 0 .728.083.813.802.813.611 0 .862-.157 1.054-.663zm11.137 4.406c-.58-.163-.663-.335-.663-1.368v-1.181h2.386c2.195 0 2.387-.042 2.387-.521 0-.406-.438-.682-1.99-1.252-2.271-.836-2.916-1.462-2.915-2.831.002-2.243 1.625-3.412 5.297-3.814 2.95-.324 3.718-.064 3.718 1.258 0 1.259-.862 1.626-2.706 1.154-1.112-.285-1.339-.272-1.706.095-.615.614-.282.925 1.535 1.435 2.307.647 3.142 1.424 3.142 2.921 0 2.333-1.395 3.62-4.27 3.938-2.926.324-3.568.35-4.215.166zm9.977-1.014c-.291-.29-.179-1.318.23-2.102.554-1.063.542-5.152-.02-6.335-.23-.485-.379-1.16-.331-1.498.081-.571.251-.63 2.341-.81 1.24-.106 2.403-.14 2.586-.074.469.168.412 1.594-.08 2.003-.266.22-.383.676-.332 1.292.076.9.136.955 1.13 1.036.768.063 1.142-.04 1.392-.382.462-.632.433-1.818-.055-2.223-.22-.181-.398-.733-.398-1.225v-.896h5.303v.896c0 .492-.179 1.044-.398 1.225-.564.469-.571 5.768-.008 6.512.214.284.393.903.398 1.377l.008.862h-5.303v-.906c0-.499.13-.95.291-1.003.16-.054.355-.66.432-1.348l.141-1.251h-2.985v1.16c0 .709.155 1.29.397 1.492.482.399.53 1.832.067 1.974-.653.201-4.644.387-4.806.224zm15.925-.693c-2.285-.895-3.034-2.132-3.043-5.027-.009-2.623.785-4.271 2.478-5.147 1.23-.636 4.181-.518 5.666.226 1.573.79 2.194 1.657 2.602 3.633.601 2.92-.28 5.21-2.373 6.16-1.249.567-4.066.649-5.33.154zm3.294-2.144c.416-.5.416-5.382 0-5.883-.17-.205-.712-.373-1.205-.373h-.896v2.802c0 1.54.124 3.032.275 3.315.32.598 1.379.679 1.826.14zm10.578-1.134c.191-.076.42-.067.508.021.088.089-.069.151-.348.14-.309-.013-.372-.076-.16-.16z" fill="#fff"/><path d="M179.608 53.41c-.875-.126-1.74-.287-1.922-.356-.465-.177-.436-2 .031-2 .415 0 .692-1.328.692-3.314s-.277-3.315-.692-3.315c-.246 0-.363-.338-.363-1.055v-1.056l1.26.159c3.937.494 7.104 1.16 7.731 1.626 1.521 1.129 1.862 3.552.667 4.747-.646.646-.8.677-2.797.561l-2.114-.122.08 1.081c.064.88.215 1.147.808 1.43.552.264.73.538.73 1.13 0 .759-.036.78-1.26.748a29.654 29.654 0 0 1-2.85-.263zm4.066-6.559c.165-1.165-.178-1.895-.889-1.895-.614 0-.658.09-.658 1.343 0 1.31.019 1.342.73 1.26.532-.062.752-.252.817-.708z" fill="#fff"/><path d="M8.153 100.17l4.542-3.844.003-15.52.002-15.521-2.906.255c-1.599.14-3.767.353-4.82.472-1.709.194-1.934.135-2.114-.553-.235-.897.308-1.021 6.184-1.415L12.7 63.8v-4.036l-1.594.022c-.876.011-3.365.157-5.53.324-2.167.167-3.991.26-4.056.205-.065-.054.517-1.489 1.294-3.188l1.412-3.089 4.237.254 4.237.253-.006-13.421-.006-13.422-3.802-2.018-3.803-2.018 1.465-.909c2.572-1.595 8.111-4.304 11.404-5.576 13.064-5.045 30.819-5.677 41.44-1.475 5.668 2.242 11.048 6.261 13.658 10.201 5.06 7.639 4.1 18.378-2.16 24.174-2.305 2.135-6.07 4.292-9.346 5.355-1.083.351-1.969.856-1.969 1.122 0 .27.997.762 2.268 1.119 2.128.597 2.386.597 4.218.004 6.923-2.245 11.932-7.337 13.997-14.229.474-1.582.672-3.474.668-6.375-.005-3.505-.159-4.566-1.023-7.06-.56-1.615-1.614-3.87-2.344-5.01-.73-1.14-1.252-2.15-1.16-2.241.286-.286 2.74 2.967 3.736 4.952 1.676 3.341 2.26 6.029 2.24 10.299-.044 8.876-4.05 15.177-12.337 19.403l-3.424 1.747 2.674 1.572c6.862 4.033 11.244 11.08 11.753 18.902.778 11.937-6.582 21.063-19.064 23.639-3.285.677-5.299.725-30.84.73l-27.326.004zm22.172-18.157c0-9.418.1-17.223.22-17.343.122-.12 3.961-.208 8.532-.194 10.115.03 13.72.7 17.55 3.257 2.008 1.34 5.573 5.363 5.573 6.287 0 .164-1.055-.754-2.344-2.042-4.498-4.492-8.794-5.775-20.437-6.102l-7.594-.214v33.476l1.406-.01c.774-.006 4.444-.17 8.157-.364 9.695-.506 13.974-1.852 18-5.66 3.589-3.394 5.05-7.454 5.05-14.028 0-9.61-3.253-14.671-11.05-17.19-4.353-1.405-8.771-1.878-17.813-1.907l-8.812-.028-.098 19.594-.097 19.593h3.757zm0-41.91v-14.41l2.156-.812c8.385-3.156 17.362-2.261 21.958 2.189 1.633 1.581 3.844 4.86 3.505 5.2-.125.125-1.34-.973-2.698-2.44-5.627-6.078-14.302-7.494-21.64-3.534l-1.781.962v27.255h3.666c7.074 0 13.436-1.218 17.759-3.4 6.048-3.053 8.975-8.702 8.453-16.317-.584-8.523-6.323-14.677-15.253-16.355-2.69-.506-9.38-.153-12 .632-1.134.34-3.37 1.223-4.969 1.963l-2.906 1.346v32.131h3.75z" fill="none"/><path d="M8.14 100.183l4.537-3.857.011-15.52.012-15.521-2.906.255c-1.599.14-3.767.353-4.82.472-1.703.193-1.935.133-2.112-.545-.239-.913.316-1.044 5.994-1.42l3.844-.255V59.68l-4.594.248c-2.526.137-5.074.341-5.662.454-.965.186-1.043.126-.807-.619.144-.453.778-1.928 1.41-3.277l1.147-2.452 4.253.255 4.253.254V41.069c0-12.488-.048-13.494-.656-13.726-.361-.137-2.07-1.02-3.798-1.96l-3.141-1.71 1.829-1.145c3.26-2.041 10.735-5.419 14.579-6.588 7.887-2.4 14.601-3.251 23.062-2.924 9.001.348 15.576 2.205 21.317 6.021 3.105 2.065 6.84 5.95 8.089 8.414 4.03 7.952 2.728 17.242-3.183 22.715-2.044 1.892-5.513 3.86-10.213 5.793-1.393.573-1.017 1.047 1.382 1.745 1.852.538 2.134.527 4.414-.177 13.144-4.06 18.527-19.935 11-32.436-.725-1.204-1.25-2.258-1.167-2.342.274-.273 2.75 3.034 3.721 4.968 1.68 3.348 2.263 6.029 2.24 10.296-.047 8.853-3.982 15.1-12.177 19.332-1.814.937-3.298 1.758-3.298 1.824 0 .066 1.11.77 2.466 1.563 1.356.793 3.503 2.491 4.77 3.773 4.317 4.368 6.5 9.157 6.9 15.135.754 11.275-5.478 19.725-17.2 23.323-2.732.838-2.919.844-31.39.96l-28.642.117zm22.185-18.17c0-9.418.098-17.223.218-17.343.428-.43 12.414-.454 16.048-.033 7.064.82 10.91 2.7 13.938 6.813 1.912 2.598 2.254 3.87.443 1.652-4.3-5.267-11.102-7.339-24.1-7.339h-5.047v33.375l1.219-.01c5.966-.052 15.114-.812 17.649-1.466 9.184-2.368 13.768-8.497 13.75-18.384-.011-6.566-1.504-10.922-4.776-13.938-3.055-2.816-8.283-4.489-16.217-5.19-4.727-.417-15.339-.52-16.282-.159-.53.204-.593 2.289-.593 19.688v19.46h3.75zm0-41.91v-14.41l2.13-.798c3.376-1.263 6.457-1.87 9.52-1.876 6.082-.012 10.08 1.449 13.146 4.804 1.85 2.025 3.171 4.098 2.829 4.44-.1.1-1.42-1.07-2.934-2.599-2.945-2.973-5.376-4.374-8.866-5.108-4.25-.893-8.888-.257-12.516 1.717l-1.809.985v27.255l3.469-.003c9.31-.008 16.613-1.872 21.058-5.373 4.418-3.48 6.473-10.775 4.907-17.417-.765-3.243-1.798-5.114-4.236-7.67-4.16-4.362-9.271-6.17-16.385-5.797-4.543.238-6.798.802-11.157 2.79l-2.906 1.325v32.145h3.75z" fill="none"/></svg>